<svg xmlns="http://www.w3.org/2000/svg" width="1254" height="1254" viewBox="0 0 1254 1254" role="img" aria-label="Base outline silhouette">

  <g id="base_outline" data-source-paths="1">
    <path fill="#49362F" d="M873.632 157.615C894.733 156.268 919.546 162.037 938.663 170.959C1066.55 230.647 1055.93 445.092 911.127 474.862C901.366 476.869 887.146 477.18 877.338 475.627C880.392 485.205 884.026 498.976 889.29 506.996C897.168 518.996 905.036 525.446 911.159 539.067C931.697 535.864 962.131 533.136 981.627 540.467C956.279 539.097 937.979 539.827 912.843 543.736C911.439 551.832 910.816 554.42 902.926 557.909C905.887 568.104 906.477 572.888 907.579 583.27C932.241 585.91 964.182 592.483 984.136 607.584C953.457 596.154 939.746 592.433 907.209 588.58C905.85 596.793 905.265 600.407 901.887 607.889C915.385 601.001 930.627 600.417 935.34 618.576C936.137 621.649 935.784 625.752 935.699 628.967C950.062 627.236 960.447 635.948 957.119 650.976C953.547 667.109 937.196 679.581 923.743 687.867C905.8 736.255 866.488 779.176 820.91 803.116C846.467 878.456 881.734 985.315 808.611 1045.67C820.614 1050.58 835.706 1061.04 835.913 1074.48C836.032 1112.21 768.779 1101.61 747.115 1094.66C728.585 1088.72 716.993 1082.67 716.481 1061.12C710.432 1058.26 704.256 1055.67 697.972 1053.37C657.642 1039.01 617.11 1043.24 578.886 1061.28C578.699 1063.11 578.475 1064.95 578.216 1066.78C574.685 1091.28 549.007 1094.46 528.723 1099.16C514.548 1101.99 501.184 1101.85 487.066 1100.16C454.099 1096.21 447.55 1069.07 476.397 1050.53C475.921 1050.69 475.444 1050.85 474.966 1051.01C446.697 1060.36 407.674 1056.97 381.505 1043.09C335.349 1018.61 315.971 973.22 322.363 922.385C324.943 898.333 334.201 873.265 326.559 849.353C315.701 815.38 275.486 809.822 249.214 829.573C242.428 834.675 226.403 850.256 222.717 832.954C221.602 827.72 225.799 820.62 228.992 816.695C242.795 799.673 261.723 790.163 283.327 787.663C298.607 785.199 319.578 790.666 332.297 799.209C351.816 812.318 362.238 831.054 366.69 853.733C373.34 887.613 358.525 919.434 365.627 953.091C369.531 971.592 379.502 987.264 395.572 997.515C414.704 1009.73 433.92 1011.15 455.556 1006.44C434.679 961.094 446.077 911.98 462.042 867.318C459.212 863.332 456.848 858.561 455.107 854.004C438.174 809.698 471.136 762.484 503.491 734.988C501.238 730.805 501.114 727.585 500.743 722.977C470.502 717.702 437.032 703.551 414.809 682.155C397.787 698.182 384.823 670.141 380.641 657.089C356.845 662.381 325.704 681.552 305.884 695.188C324.745 674.317 352.781 660.085 379.43 651.596C377.81 643.399 378.306 636.675 378.592 628.396C369.72 628.034 367.441 623.786 366.587 615.587C334.5 616.793 314.674 623.795 285.003 633.39C308.169 618.595 339.391 611.097 366.837 610.258C369.473 598.015 375.555 589.236 379.478 577.545C384.285 563.217 382.424 549.18 383.723 534.712L383.792 533.995C355.941 539.522 327.051 535.99 301.352 523.915C180.863 468.284 181.938 275.43 312.083 228.543C347.035 215.842 385.621 217.695 419.194 233.687C458.57 252.529 483.711 284.521 498.185 325.108C507.634 318.553 522.647 311.43 533.385 307.431C545.246 280.902 565.418 248.607 592.402 234.842C596.778 232.784 602.743 231.238 607.358 233.315C621.978 239.895 615.586 258.599 611.08 269.609C621.042 264.127 650.288 250.154 656.102 268.525C658.318 275.524 655.674 280.754 652.126 286.64C677.122 286.648 701.689 292.089 724.918 301.054C727.293 269.211 742.55 233.843 763.678 210.132C793.37 176.809 829.661 160.454 873.632 157.615Z"/>
  </g>
</svg>
